<svg xmlns="http://www.w3.org/2000/svg" version="1.1" xmlns:xlink="http://www.w3.org/1999/xlink" xmlns:svgjs="http://svgjs.com/svgjs" width="260" height="260"><svg version="1.1" id="SvgjsSvg1000" xmlns="http://www.w3.org/2000/svg" xmlns:xlink="http://www.w3.org/1999/xlink" x="0px" y="0px" viewBox="0 0 260 260" style="enable-background:new 0 0 260 260;" xml:space="preserve">
<g>
	<g>
		<path d="M131.82,233.6c-13.07,0-25.3-2.56-36.68-7.7c-11.39-5.13-21.42-12.36-30.1-21.7c-8.68-9.33-15.45-20.11-20.3-32.34
			c-4.86-12.22-7.28-25.62-7.28-40.18c0-13.62,2.47-26.46,7.42-38.5c4.94-12.04,11.76-22.68,20.44-31.92
			C74,52.02,84.22,44.84,95.98,39.7c11.76-5.13,24.45-7.7,38.08-7.7c18.85,0,34.95,3.92,48.3,11.76
			c13.34,7.84,23.38,18.39,30.1,31.64l-28.84,21.28c-4.86-9.89-11.86-17.45-21-22.68c-9.15-5.22-19.04-7.84-29.68-7.84
			c-8.4,0-16.1,1.78-23.1,5.32c-7,3.55-13.02,8.4-18.06,14.56c-5.04,6.16-8.87,13.26-11.48,21.28c-2.62,8.03-3.92,16.52-3.92,25.48
			c0,9.52,1.44,18.3,4.34,26.32c2.89,8.03,7,15.08,12.32,21.14c5.32,6.07,11.52,10.78,18.62,14.14c7.09,3.36,14.93,5.04,23.52,5.04
			c10.26,0,19.97-2.61,29.12-7.84c9.14-5.22,17.73-12.88,25.76-22.96V207C173.45,224.74,154.03,233.6,131.82,233.6z M187.26,158.28
			h-40.04V130h71.96v102.2h-31.92V158.28z"></path>
	</g>
</g>
</svg><style>@media (prefers-color-scheme: light) { :root { filter: none; } }
@media (prefers-color-scheme: dark) { :root { filter: invert(100%); } }
</style></svg>